Coordinates
version=1
nRows=17
nColumns=40
inDegrees=yes

Units are S.I. units (second, meters, Newtons, ...)
If the header above contains a line with 'inDegrees', this indicates whether rotational values are in degrees (yes) or radians (no).

endheader
time	pelvis_tilt	pelvis_list	pelvis_rotation	pelvis_tx	pelvis_ty	pelvis_tz	hip_flexion_r	hip_adduction_r	hip_rotation_r	knee_angle_r	knee_angle_r_beta	ankle_angle_r	subtalar_angle_r	mtp_angle_r	hip_flexion_l	hip_adduction_l	hip_rotation_l	knee_angle_l	knee_angle_l_beta	ankle_angle_l	subtalar_angle_l	mtp_angle_l	lumbar_extension	lumbar_bending	lumbar_rotation	arm_flex_r	arm_add_r	arm_rot_r	elbow_flex_r	pro_sup_r	wrist_flex_r	wrist_dev_r	arm_flex_l	arm_add_l	arm_rot_l	elbow_flex_l	pro_sup_l	wrist_flex_l	wrist_dev_l
      8.97500000	      2.06408702	     -7.59026740	    179.48207916	      0.29471766	      0.91144449	     -0.61830379	     26.00777210	    -15.80729090	     -9.24968503	     25.76727106	      0.44972372	      3.09038541	      0.00000000	      0.00000000	     21.16391643	     -1.15394879	    -17.50148320	     21.01024075	      0.36669788	      0.01642464	      0.00000000	      0.00000000	    -33.24284487	     -6.50791958	     -9.52019816	     28.96859256	     -2.07541761	     56.48883947	      4.59803477	     12.01388806	      0.00000000	      0.00000000	     32.74179404	    -11.90992543	     75.38465928	      4.98960957	     82.70262832	      0.00000000	      0.00000000
      8.98000000	      1.90378147	     -7.62234329	    179.40224539	      0.29369789	      0.91184452	     -0.61828278	     25.77086075	    -15.84640183	     -9.23021651	     25.75465392	      0.44950351	      3.15157588	      0.00000000	      0.00000000	     20.90102955	     -1.13249289	    -17.59872731	     20.98993007	      0.36634339	      0.06347928	      0.00000000	      0.00000000	    -32.84058553	     -6.57351306	     -9.45867199	     28.66154651	     -2.11772036	     56.49260018	      4.56439368	     12.01742208	      0.00000000	      0.00000000	     32.36226165	    -11.84712082	     75.38684402	      5.03139697	     82.70708655	      0.00000000	      0.00000000
      8.98500000	      1.33924759	     -7.64050485	    179.50833955	      0.29231432	      0.91323495	     -0.61788127	     24.83444293	    -16.01188823	     -9.82072588	     25.49753891	      0.44501601	      3.19238091	      0.00000000	      0.00000000	     19.97809452	     -0.91369464	    -17.32776291	     20.51186727	      0.35799962	      0.03460399	      0.00000000	      0.00000000	    -32.90115684	     -6.49747460	     -9.64353200	     28.31173295	     -2.28979113	     56.76107963	      4.82929519	     12.16564518	      0.00000000	      0.00000000	     31.99509865	    -11.90207496	     75.38493555	      5.04382605	     82.64814453	      0.00000000	      0.00000000
      8.99000000	      1.19971415	     -7.69470448	    179.41451277	      0.29124999	      0.91353558	     -0.61799786	     24.60064980	    -16.05182929	     -9.78879527	     25.45111271	      0.44420572	      3.29518247	      0.00000000	      0.00000000	     19.74568492	     -0.89318295	    -17.50620117	     20.52015402	      0.35814425	      0.07329104	      0.00000000	      0.00000000	    -32.46322428	     -6.60729062	     -9.55597048	     27.98854937	     -2.34985399	     56.76500862	      4.76580306	     12.16641873	      0.00000000	      0.00000000	     31.57975832	    -11.85258931	     75.37196309	      5.08455306	     82.65597392	      0.00000000	      0.00000000
      8.99500000	      1.03430850	     -7.77275079	    179.41610826	      0.29000389	      0.91386345	     -0.61787880	     24.26521248	    -16.17209412	     -9.93014898	     25.35471467	      0.44252325	      3.50269450	      0.00000000	      0.00000000	     19.48990422	     -0.79051554	    -17.52179181	     20.54121793	      0.35851189	      0.16647242	      0.00000000	      0.00000000	    -32.04773326	     -6.68693342	     -9.55158529	     27.55196562	     -2.39626756	     56.77423310	      4.72672924	     12.17685231	      0.00000000	      0.00000000	     31.16951598	    -11.85736096	     75.33906799	      5.11307361	     82.65652859	      0.00000000	      0.00000000
      9.00000000	      0.75171884	     -7.72599588	    179.48612834	      0.28888512	      0.91447906	     -0.61761209	     23.76896182	    -16.22407145	    -10.32597115	     25.27351098	      0.44110598	      3.66061288	      0.00000000	      0.00000000	     19.08169342	     -0.76781554	    -17.37869124	     20.48113894	      0.35746331	      0.26501059	      0.00000000	      0.00000000	    -31.79560062	     -6.59277411	     -9.65265654	     27.25632946	     -2.43199123	     56.83999846	      4.80907908	     12.22693980	      0.00000000	      0.00000000	     30.81328976	    -11.88336060	     75.25707511	      5.16175083	     82.63901029	      0.00000000	      0.00000000
      9.00500000	      0.13020015	     -7.63353552	    179.48431716	      0.28757074	      0.91597375	     -0.61733869	     22.72728506	    -16.18580738	    -10.73588705	     24.87483169	      0.43414771	      3.55263445	      0.00000000	      0.00000000	     18.13513846	     -0.74904253	    -17.46124425	     20.10778211	      0.35094700	      0.22942063	      0.00000000	      0.00000000	    -31.92033894	     -6.44231905	     -9.70730951	     27.05873010	     -2.63448244	     57.23532020	      4.97221008	     12.41584814	      0.00000000	      0.00000000	     30.43514396	    -11.86794921	     74.95082503	      5.21826219	     82.57912078	      0.00000000	      0.00000000
      9.01000000	      0.02442931	     -7.67122280	    179.41339377	      0.28644141	      0.91620851	     -0.61735552	     22.49349412	    -16.22355440	    -10.78099555	     24.78717257	      0.43261777	      3.67003997	      0.00000000	      0.00000000	     17.92396894	     -0.72450486	    -17.64805801	     20.09335978	      0.35069529	      0.30552571	      0.00000000	      0.00000000	    -31.44196483	     -6.52211956	     -9.62855443	     26.69814818	     -2.67963624	     57.24958261	      4.90938084	     12.42126968	      0.00000000	      0.00000000	     30.00977942	    -11.84133812	     74.93124681	      5.25003130	     82.58876673	      0.00000000	      0.00000000
      9.01500000	     -0.17305607	     -7.61850105	    179.46116203	      0.28537649	      0.91666452	     -0.61706164	     22.09482223	    -16.23266199	    -11.05376392	     24.68465206	      0.43082845	      3.74823791	      0.00000000	      0.00000000	     17.59873125	     -0.70814777	    -17.49610751	     20.01588079	      0.34934302	      0.41953486	      0.00000000	      0.00000000	    -31.08302263	     -6.42365807	     -9.68790159	     26.40034852	     -2.71607755	     57.34710293	      4.93713699	     12.47050762	      0.00000000	      0.00000000	     29.63599511	    -11.83317199	     74.88246653	      5.29359114	     82.58929879	      0.00000000	      0.00000000
      9.02000000	     -0.55820560	     -7.51027718	    179.46523624	      0.28416286	      0.91760883	     -0.61687342	     21.40501147	    -16.17130073	    -11.42211665	     24.41919137	      0.42619529	      3.70559169	      0.00000000	      0.00000000	     17.00275248	     -0.75938919	    -17.55883836	     19.83441029	      0.34617576	      0.44457604	      0.00000000	      0.00000000	    -30.94124261	     -6.28918432	     -9.69577295	     26.12754557	     -2.87783733	     57.71642786	      5.01202797	     12.62216428	      0.00000000	      0.00000000	     29.28884560	    -11.80054962	     74.72418354	      5.31892246	     82.54215171	      0.00000000	      0.00000000
      9.02500000	     -0.66022564	     -7.52186614	    179.39479848	      0.28299805	      0.91788409	     -0.61688426	     21.19714563	    -16.19389443	    -11.50618107	     24.38152625	      0.42553791	      3.79422372	      0.00000000	      0.00000000	     16.78364335	     -0.75720098	    -17.76735549	     19.80216867	      0.34561304	      0.52343882	      0.00000000	      0.00000000	    -30.46118135	     -6.34548394	     -9.61576323	     25.78354777	     -2.90922733	     57.74258466	      4.95843182	     12.63083751	      0.00000000	      0.00000000	     28.89656385	    -11.76899213	     74.71892769	      5.34104088	     82.55104025	      0.00000000	      0.00000000
      9.03000000	     -0.85709299	     -7.41832897	    179.44068758	      0.28190415	      0.91836989	     -0.61664544	     20.82981624	    -16.16720788	    -11.88200678	     24.33802728	      0.42477871	      3.82000203	      0.00000000	      0.00000000	     16.46246182	     -0.81154727	    -17.68080600	     19.74137802	      0.34455205	      0.64396980	      0.00000000	      0.00000000	    -30.11765952	     -6.20707319	     -9.64354692	     25.50985859	     -2.97900215	     57.91539725	      4.97928205	     12.69725434	      0.00000000	      0.00000000	     28.53557909	    -11.73550599	     74.73443538	      5.35218797	     82.55015635	      0.00000000	      0.00000000
      9.03500000	     -0.97818239	     -7.48010209	    179.38349816	      0.28067888	      0.91866622	     -0.61655091	     20.58427961	    -16.23788082	    -11.86849913	     24.27071245	      0.42360384	      3.92277460	      0.00000000	      0.00000000	     16.22899300	     -0.75092815	    -17.89562518	     19.73020202	      0.34435699	      0.71053238	      0.00000000	      0.00000000	    -29.65521854	     -6.29962216	     -9.58567030	     25.16248821	     -3.02999188	     57.93990837	      4.93198275	     12.70608185	      0.00000000	      0.00000000	     28.13874077	    -11.69863105	     74.73990839	      5.37438582	     82.56243456	      0.00000000	      0.00000000
      9.04000000	     -1.08345218	     -7.52384882	    179.33802923	      0.27950737	      0.91901033	     -0.61656277	     20.36722006	    -16.30089877	    -11.99845019	     24.22750316	      0.42284970	      3.99144586	      0.00000000	      0.00000000	     16.00854161	     -0.71566942	    -18.08856257	     19.70349396	      0.34389084	      0.75346531	      0.00000000	      0.00000000	    -29.20295347	     -6.38398824	     -9.54606589	     24.82388751	     -3.05237236	     57.96432105	      4.90498711	     12.71688829	      0.00000000	      0.00000000	     27.77821026	    -11.65677103	     74.74175775	      5.39907188	     82.57050318	      0.00000000	      0.00000000
      9.04500000	     -1.22896551	     -7.61176325	    179.34719461	      0.27842985	      0.91936220	     -0.61630146	     20.08819499	    -16.43283110	    -12.09520591	     24.16228030	      0.42171135	      4.09110803	      0.00000000	      0.00000000	     15.75191207	     -0.58893013	    -18.15295938	     19.66071633	      0.34314423	      0.81059751	      0.00000000	      0.00000000	    -28.79817468	     -6.46893075	     -9.58114044	     24.48949381	     -3.10291437	     57.99239260	      4.88885058	     12.73163802	      0.00000000	      0.00000000	     27.43506802	    -11.63644969	     74.74856108	      5.40664114	     82.57856369	      0.00000000	      0.00000000
      9.05000000	     -1.85569455	     -7.86718897	    179.41387716	      0.27708675	      0.92094221	     -0.61596348	     19.13690143	    -16.81082357	    -12.57323856	     23.92424162	      0.41755679	      4.05655575	      0.00000000	      0.00000000	     14.56809736	     -0.07683846	    -17.99678874	     18.76775161	      0.32755906	      0.49893562	      0.00000000	      0.00000000	    -28.96799868	     -6.66769797	     -9.87582443	     24.24370462	     -3.26085654	     58.55605334	      5.13013277	     12.95559795	      0.00000000	      0.00000000	     27.14527617	    -11.66172311	     74.75564135	      5.40096728	     82.57723839	      0.00000000	      0.00000000
      9.05500000	     -1.99259258	     -7.95730047	    179.39502051	      0.27610204	      0.92125131	     -0.61590309	     18.93348092	    -16.93587830	    -12.65102067	     23.94858368	      0.41798164	      4.15144128	      0.00000000	      0.00000000	     14.33561513	      0.01898297	    -18.08887715	     18.75357480	      0.32731163	      0.53491266	      0.00000000	      0.00000000	    -28.56257409	     -6.79127674	     -9.89872065	     23.91623830	     -3.26950168	     58.63060824	      5.10730574	     12.98438532	      0.00000000	      0.00000000	     26.81225604	    -11.66487215	     74.74056467	      5.42929088	     82.58574169	      0.00000000	      0.00000000
